<svg width="1920" height="989" viewBox="0 0 1920 989" fill="none" xmlns="http://www.w3.org/2000/svg">
<g clip-path="url(#clip0_1981_200)">
<rect width="1920" height="995" transform="translate(0 -6)" fill="#FFF3D7"/>
<path d="M1659.54 849.692C1664.55 906.793 1614.5 953.367 1557.91 944.269L1120.85 874.011C1048.51 862.383 1021.23 772.618 1074.87 722.706L1473.23 351.99C1526.86 302.077 1614.44 335.732 1620.84 408.717L1659.54 849.692Z" fill="#065B98"/>
<path d="M1398.49 250.032C1455.34 261.156 1487.03 322.308 1463.34 375.169L1316.05 703.774C1285.24 772.508 1188.67 775.248 1154.01 708.371L947.899 310.616C913.244 243.739 971.169 166.418 1045.09 180.882L1398.49 250.032Z" fill="#8CF965"/>
</g>
<defs>
<clipPath id="clip0_1981_200">
<rect width="1920" height="995" fill="white" transform="translate(0 -6)"/>
</clipPath>
</defs>
</svg>
