<svg width="1799" height="1426" viewBox="0 0 1799 1426" fill="none" xmlns="http://www.w3.org/2000/svg">
<path d="M28.5019 1082.54L41.473 1085.58C43.4751 1086.06 43.5208 1088.88 41.5369 1089.42L29.5577 1092.65C28.8731 1092.83 28.3406 1093.37 28.1611 1094.05L24.0564 1109.53C23.5544 1111.42 20.8981 1111.51 20.2682 1109.66L15.3481 1095.16C15.1291 1094.52 14.5936 1094.03 13.9272 1093.87L1.52503 1090.95C-0.477091 1090.48 -0.51969 1087.64 1.46721 1087.11L13.8268 1083.81C14.5236 1083.62 15.0621 1083.07 15.2356 1082.37L18.9142 1067.5C19.395 1065.56 22.1243 1065.48 22.7237 1067.39L27.0657 1081.21C27.2757 1081.87 27.8203 1082.38 28.5019 1082.54V1082.54Z" fill="#82879B"/>
<path d="M214.502 199.544L227.473 202.585C229.475 203.056 229.521 205.884 227.537 206.419L215.558 209.648C214.873 209.831 214.341 210.369 214.161 211.05L210.056 226.528C209.554 228.422 206.898 228.513 206.268 226.656L201.348 212.163C201.129 211.518 200.594 211.029 199.927 210.874L187.525 207.948C185.523 207.477 185.48 204.643 187.467 204.111L199.827 200.809C200.524 200.623 201.062 200.073 201.236 199.37L204.914 184.504C205.395 182.561 208.124 182.479 208.724 184.385L213.066 198.206C213.276 198.872 213.82 199.38 214.502 199.541V199.544Z" fill="#82879B"/>
<path d="M1521.43 1058.72L1539.75 1062.18C1542.57 1062.72 1542.81 1066.69 1540.07 1067.56L1523.53 1072.82C1522.59 1073.12 1521.88 1073.9 1521.66 1074.87L1516.88 1096.82C1516.29 1099.5 1512.59 1099.79 1511.59 1097.23L1503.83 1077.22C1503.48 1076.32 1502.7 1075.67 1501.76 1075.5L1484.25 1072.16C1481.43 1071.62 1481.19 1067.65 1483.94 1066.78L1501 1061.39C1501.96 1061.09 1502.68 1060.28 1502.88 1059.29L1507.11 1038.23C1507.66 1035.48 1511.47 1035.19 1512.43 1037.83L1519.34 1056.93C1519.67 1057.86 1520.47 1058.53 1521.43 1058.72H1521.43Z" fill="#82879B"/>
<path d="M1668.1 1392.97C1669.59 1394.09 1670.76 1395.45 1671.63 1397.05C1672.49 1398.63 1672.94 1400.28 1672.99 1401.99C1673.06 1403.94 1672.59 1405.76 1671.57 1407.44C1670.6 1409.03 1669.29 1410.28 1667.63 1411.21C1665.74 1412.26 1663.45 1412.85 1660.73 1412.97C1658.85 1413.06 1656.68 1412.93 1654.22 1412.57C1652.5 1412.33 1650.74 1411.99 1648.94 1411.57C1648.63 1411.5 1648.33 1411.42 1648.01 1411.34V1411.38L1645.79 1410.72L1644.68 1408.99H1644.7C1644.5 1408.63 1644.29 1408.27 1644.07 1407.9C1643.18 1406.33 1642.39 1404.77 1641.7 1403.22C1640.68 1400.93 1639.95 1398.87 1639.51 1397.04C1638.89 1394.41 1638.83 1392.06 1639.34 1389.97C1639.78 1388.12 1640.64 1386.54 1641.92 1385.19C1643.27 1383.75 1644.91 1382.8 1646.83 1382.32C1648.49 1381.9 1650.2 1381.89 1651.97 1382.29C1653.75 1382.67 1655.39 1383.42 1656.86 1384.53C1658.92 1386.08 1660.35 1388.07 1661.16 1390.49C1663.73 1390.6 1666.03 1391.42 1668.09 1392.97H1668.1V1392.97Z" fill="#82879B"/>
<path d="M1743.33 138H1736.67C1736.37 138 1736.11 137.894 1735.89 137.677C1735.68 137.46 1735.57 137.204 1735.57 136.904V132.43H1731.1C1730.8 132.43 1730.54 132.324 1730.32 132.107C1730.11 131.89 1730 131.634 1730 131.333V124.667C1730 124.366 1730.11 124.11 1730.32 123.893C1730.54 123.676 1730.8 123.57 1731.1 123.57H1735.57V119.096C1735.57 118.796 1735.68 118.54 1735.89 118.323C1736.11 118.106 1736.37 118 1736.67 118H1743.33C1743.63 118 1743.89 118.106 1744.11 118.323C1744.32 118.54 1744.43 118.796 1744.43 119.096V123.57H1748.9C1749.2 123.57 1749.46 123.676 1749.68 123.893C1749.89 124.11 1750 124.366 1750 124.667V131.333C1750 131.634 1749.89 131.89 1749.68 132.107C1749.46 132.324 1749.2 132.43 1748.9 132.43H1744.43V136.904C1744.43 137.204 1744.32 137.46 1744.11 137.677C1743.89 137.894 1743.63 138 1743.33 138Z" fill="#82879B"/>
<path d="M189.791 875.727C188.086 875.001 186.322 874.66 184.501 874.71C182.706 874.758 181.05 875.189 179.541 876C177.811 876.917 176.477 878.238 175.534 879.956C174.639 881.586 174.21 883.351 174.238 885.257C174.269 887.419 174.909 889.703 176.158 892.111C177.024 893.787 178.221 895.602 179.762 897.554C180.831 898.924 181.998 900.28 183.273 901.624C183.485 901.85 183.707 902.079 183.931 902.311L183.902 902.336L185.588 903.925L187.639 904.022L187.628 904.003C188.038 904.003 188.456 904.002 188.887 904.002C190.692 903.992 192.437 903.9 194.13 903.718C196.62 903.459 198.764 903.06 200.57 902.52C203.15 901.744 205.224 900.615 206.78 899.132C208.154 897.827 209.101 896.287 209.622 894.512C210.192 892.622 210.203 890.724 209.655 888.822C209.184 887.176 208.335 885.684 207.109 884.345C205.886 882.996 204.421 881.959 202.715 881.233C200.352 880.224 197.915 879.975 195.408 880.486C194.034 878.321 192.164 876.731 189.801 875.722L189.791 875.727Z" fill="#82879B"/>
<path d="M45.7911 362.727C44.086 362.001 42.3221 361.66 40.5014 361.71C38.7055 361.758 37.0498 362.189 35.5408 363C33.811 363.917 32.4766 365.238 31.5338 366.956C30.6387 368.586 30.2101 370.351 30.2383 372.257C30.2693 374.419 30.9087 376.703 32.1584 379.111C33.0235 380.787 34.221 382.602 35.7623 384.554C36.8306 385.924 37.9976 387.28 39.2735 388.624C39.4851 388.85 39.7069 389.079 39.9306 389.311L39.9023 389.336L41.5884 390.925L43.639 391.022L43.6279 391.003C44.0378 391.003 44.4559 391.002 44.8874 391.002C46.6923 390.992 48.4373 390.9 50.1303 390.718C52.6199 390.459 54.7638 390.06 56.5703 389.52C59.1504 388.744 61.2237 387.615 62.7802 386.132C64.1538 384.827 65.1011 383.287 65.622 381.512C66.1922 379.622 66.2026 377.724 65.6551 375.822C65.1836 374.176 64.3349 372.684 63.1092 371.345C61.8862 369.996 60.4205 368.959 58.7154 368.233C56.3521 367.224 53.9153 366.975 51.4082 367.486C50.0344 365.321 48.164 363.731 45.8007 362.722L45.7911 362.727Z" fill="#82879B"/>
<path d="M275.341 1393.72L285.499 1402.34C287.066 1403.67 285.817 1406.21 283.807 1405.78L271.674 1403.19C270.981 1403.04 270.262 1403.28 269.791 1403.8L259.081 1415.71C257.77 1417.17 255.365 1416.04 255.651 1414.09L257.88 1398.95C257.979 1398.28 257.726 1397.6 257.204 1397.16L247.499 1388.9C245.932 1387.57 247.187 1385.03 249.198 1385.46L261.703 1388.15C262.408 1388.31 263.138 1388.06 263.613 1387.52L273.666 1375.96C274.979 1374.45 277.446 1375.62 277.11 1377.59L274.673 1391.87C274.556 1392.56 274.809 1393.26 275.342 1393.72L275.341 1393.72Z" fill="#82879B"/>
<path d="M78.4957 620.154C80.387 629.948 89.8653 636.355 99.6652 634.462C109.465 632.572 115.876 623.099 113.982 613.305C112.09 603.511 102.612 597.104 92.8121 598.997C83.0122 600.887 76.6017 610.36 78.4957 620.154Z" fill="#1E0232"/>
<path d="M159.229 609.432L160.325 626.515L155.413 626.238L152.59 603.301L159.229 609.432Z" fill="#1E0232"/>
<path d="M160.788 604.844L157.578 605.123L159.927 632.175L163.137 631.897L160.788 604.844Z" fill="#F8F2B1"/>
<path d="M91.5547 597.131L111.877 634.59L115.924 617.458L91.5547 597.131Z" fill="#1E0232"/>
<path d="M160.27 589.825L160.251 589.811C153.857 584.888 146.567 581.352 138.848 579.374C134.359 579.316 128.872 578.77 121.543 577.646C121.002 577.564 120.46 577.547 119.933 577.591C117.255 577.825 114.855 579.624 113.684 582.141C112.967 583.687 112.777 585.44 113.143 587.108C116.782 603.701 115.529 607.347 115.529 607.347L113.258 617.407C111.537 616.883 109.847 616.171 108.208 615.298C106.916 612.042 105.869 608.201 105.193 603.677C100.165 569.973 123.259 555.448 142.837 562.009C148.818 564.014 153.596 568.308 156.471 573.737C157.788 576.22 158.703 578.943 159.151 581.792C159.399 583.374 159.655 585.091 159.896 586.891C160.023 587.847 160.147 588.828 160.268 589.825H160.27Z" fill="#1E0232"/>
<path d="M159.781 616.631C155.377 629.23 145.025 637.026 128.567 633.48C128.567 633.48 115.039 632.548 108.211 615.298C109.849 616.172 111.543 616.883 113.261 617.408L115.531 607.348C115.531 607.348 116.782 603.702 113.145 587.108C112.78 585.444 112.969 583.688 113.687 582.141C114.858 579.625 117.258 577.823 119.935 577.592C120.463 577.545 121.004 577.562 121.546 577.647C128.875 578.77 134.359 579.32 138.85 579.375C146.569 581.353 153.857 584.886 160.254 589.812L160.273 589.825C161.403 599.342 161.972 610.372 159.784 616.631H159.781Z" fill="#F8D1DD"/>
<path d="M132.105 589.58C132.105 589.58 140.849 588.363 139.582 590.349C139.582 590.349 138.103 590.915 131.019 592.582C123.935 594.25 121.939 595.365 122.168 594.22C122.393 593.074 128.388 590.343 132.108 589.577H132.105V589.58Z" fill="#1E0232"/>
<path d="M156.046 587.248C156.046 587.248 145.98 588.122 147.81 589.504C147.81 589.504 148.657 589.103 155.037 589.119C159.683 589.13 160.612 590.056 159.897 589.54C159.051 588.927 158.691 587.213 156.046 587.248Z" fill="#1E0232"/>
<path d="M135.501 607.814C135.336 607.827 135.171 607.838 135.003 607.844C129.291 608.064 124.458 603.503 124.233 597.673C124.123 594.852 125.096 592.157 126.974 590.086C128.854 588.011 131.416 586.811 134.184 586.701C136.955 586.594 139.599 587.594 141.634 589.517C143.665 591.437 144.844 594.05 144.954 596.871C145.064 599.693 144.091 602.388 142.214 604.459C140.446 606.41 138.079 607.588 135.501 607.811V607.814ZM133.777 587.75C131.457 587.951 129.324 589.014 127.732 590.772C126.036 592.646 125.157 595.083 125.253 597.635C125.456 602.902 129.813 607.025 134.962 606.825C137.455 606.729 139.762 605.646 141.455 603.775C143.151 601.902 144.031 599.465 143.935 596.912C143.836 594.36 142.769 591.998 140.933 590.261C139.099 588.528 136.716 587.627 134.223 587.723C134.074 587.728 133.923 587.739 133.775 587.75H133.777Z" fill="#F8F2B1"/>
<path d="M158.803 606.44C158.674 606.451 158.545 606.459 158.416 606.465C153.479 606.654 149.287 602.248 149.069 596.638C148.965 593.934 149.79 591.352 151.389 589.371C153.009 587.368 155.224 586.215 157.627 586.121C160.032 586.028 162.33 587.009 164.098 588.879C165.849 590.731 166.869 593.242 166.973 595.945C167.078 598.649 166.253 601.231 164.653 603.212C163.122 605.108 161.057 606.242 158.803 606.437V606.44ZM157.333 587.162C155.356 587.333 153.539 588.338 152.187 590.011C150.741 591.803 149.996 594.14 150.092 596.599C150.287 601.646 154.004 605.613 158.377 605.446C160.483 605.363 162.429 604.344 163.859 602.575C165.305 600.783 166.049 598.445 165.953 595.987C165.857 593.531 164.936 591.253 163.356 589.58C161.794 587.926 159.774 587.058 157.668 587.14C157.555 587.146 157.443 587.151 157.333 587.162Z" fill="#F8F2B1"/>
<path d="M149.271 597.025C146.706 595.074 145.026 596.989 144.842 597.212L144.045 596.572C144.07 596.541 146.478 593.616 149.889 596.212L149.271 597.025Z" fill="#F8F2B1"/>
<path d="M124.695 597.142L113.668 598.263L113.771 599.28L124.798 598.159L124.695 597.142Z" fill="#F8F2B1"/>
<path d="M156.475 573.736C153.6 568.308 148.822 564.014 142.84 562.008C138.296 560.486 137.911 562.571 133.384 563.297C129.863 563.86 124.931 565 121.844 566.895C119.301 568.459 115.953 570.387 113.935 572.843C112.214 574.94 110.576 576.19 109.38 578.926C108.174 581.687 108.242 585.129 107.698 588.533C106.92 593.42 106.027 597.333 106.95 603.525C107.627 608.05 106.92 612.042 108.212 615.297C86.7319 603.877 73.9137 565.011 120.233 559.525C145.306 556.555 153.982 568.67 156.475 573.736Z" fill="#1E0232"/>
<path d="M146.955 611.276C146.798 611.29 146.636 611.251 146.499 611.152C146.188 610.932 146.111 610.504 146.331 610.191L150.127 604.789C150.287 604.561 150.185 604.358 150.133 604.281C150.08 604.204 149.932 604.031 149.66 604.092L147.535 604.564C146.908 604.702 146.284 604.347 146.086 603.737L145.704 602.567C145.586 602.204 145.784 601.814 146.147 601.696C146.51 601.578 146.9 601.776 147.018 602.138L147.359 603.188L149.357 602.743C150.102 602.578 150.856 602.88 151.279 603.512C151.702 604.144 151.691 604.957 151.254 605.581L147.458 610.982C147.337 611.155 147.147 611.257 146.952 611.273H146.955V611.276Z" fill="#1E1530"/>
<path d="M132.144 586.696C140.357 576.928 143.528 566.081 139.226 562.468C134.924 558.856 124.779 563.846 116.566 573.614C108.353 583.382 105.183 594.229 109.484 597.842C113.786 601.454 123.931 596.464 132.144 586.696Z" fill="#1E0232"/>
<path d="M113.262 617.408L116.784 634.163L111.88 634.589L105.818 612.287L113.262 617.408Z" fill="#1E0232"/>
<path d="M107.808 618.661C112.103 618.661 115.585 615.181 115.585 610.889C115.585 606.597 112.103 603.117 107.808 603.117C103.513 603.117 100.031 606.597 100.031 610.889C100.031 615.181 103.513 618.661 107.808 618.661Z" fill="#F8D1DD"/>
<path d="M106.613 605.298C106.646 605.413 106.591 605.537 106.478 605.586C104.71 606.358 103.556 607.454 103.045 608.847C102.253 611.001 103.281 613.144 103.289 613.166C103.347 613.287 103.297 613.432 103.177 613.49C103.056 613.548 102.91 613.498 102.852 613.377C102.805 613.281 101.725 611.023 102.586 608.677C103.144 607.157 104.389 605.965 106.28 605.138C106.404 605.083 106.547 605.138 106.599 605.265C106.604 605.276 106.607 605.284 106.61 605.295H106.613V605.298Z" fill="#1E0232"/>
<path d="M103.113 613.79C103.042 613.795 102.97 613.79 102.899 613.762C102.767 613.718 102.663 613.625 102.602 613.499C102.553 613.4 101.423 611.037 102.324 608.584C102.91 606.99 104.205 605.746 106.17 604.889C106.297 604.834 106.44 604.831 106.566 604.88C106.695 604.93 106.797 605.029 106.852 605.155C106.86 605.174 106.868 605.196 106.874 605.218C106.945 605.468 106.822 605.732 106.583 605.836C104.886 606.578 103.781 607.622 103.298 608.941C102.553 610.971 103.523 613.023 103.534 613.045C103.658 613.304 103.551 613.614 103.295 613.738C103.237 613.765 103.174 613.784 103.111 613.79H103.113Z" fill="#1E0232"/>
<path d="M110.533 614.447L106.551 614.793L109.074 643.854L113.056 643.509L110.533 614.447Z" fill="#F8F2B1"/>
<path d="M138.117 597.699C138.098 598.567 137.727 599.344 137.147 599.899C136.569 600.454 135.783 600.784 134.923 600.767C133.194 600.732 131.819 599.303 131.852 597.575C131.852 597.504 131.858 597.432 131.863 597.364C131.992 595.913 133.103 594.754 134.516 594.539C134.582 594.528 134.648 594.523 134.711 594.517C134.774 594.512 134.832 594.506 134.89 594.504H135.044C136.773 594.539 138.147 595.968 138.114 597.696H138.117V597.699Z" fill="#1E0232"/>
<path d="M132.009 595.433C132.837 594.941 133.691 594.642 134.519 594.543C133.106 594.757 131.993 595.914 131.866 597.367L127.273 600.727C127.138 600.829 126.979 600.875 126.822 600.872C126.596 600.867 126.379 600.763 126.239 600.568C125.997 600.238 126.069 599.776 126.399 599.535L132.012 595.436H132.009V595.433Z" fill="#1E0232"/>
<path d="M157.887 593.961C157.612 593.145 157.126 592.538 156.482 592.25C156.436 592.228 156.386 592.211 156.334 592.189" fill="#1E0232"/>
<path d="M158.021 595.129C158.002 596.036 157.722 596.841 157.293 597.366C156.96 597.772 156.542 598.011 156.089 598.006C155.055 597.984 154.241 596.665 154.274 595.055C154.277 594.811 154.302 594.574 154.343 594.349C154.574 593.088 155.327 592.165 156.207 592.182C156.248 592.182 156.289 592.184 156.333 592.19C156.388 592.209 156.435 592.228 156.482 592.25C157.125 592.539 157.609 593.146 157.886 593.962C157.98 594.319 158.029 594.717 158.021 595.129Z" fill="#1E0232"/>
<path d="M158.021 595.13C158.002 596.036 157.722 596.841 157.293 597.366C157.089 597.478 156.839 597.492 156.614 597.382C156.245 597.201 156.094 596.759 156.273 596.393L156.666 595.588C156.655 594.456 156.259 593.764 155.88 593.597C155.544 593.448 155.041 593.646 154.486 594.143L154.346 594.347L151.943 597.844C151.798 598.055 151.558 598.168 151.317 598.165C151.179 598.165 151.039 598.121 150.915 598.036C150.58 597.805 150.492 597.344 150.723 597.006L153.057 593.613L153.101 593.553C153.392 593.154 153.744 592.8 154.164 592.539C155.113 591.948 155.872 592.025 156.333 592.193C156.388 592.212 156.435 592.231 156.482 592.253C157.125 592.542 157.609 593.149 157.886 593.965C157.98 594.322 158.029 594.72 158.021 595.132V595.13Z" fill="#1E0232"/>
<path d="M149.768 617.552L139.193 618.764C139.193 618.764 141.783 622.305 145.788 621.605C149.79 620.904 149.768 617.555 149.768 617.555V617.552Z" fill="white"/>
<path d="M268.671 468.815L248.868 509.285C247.37 508.81 245.869 508.357 244.359 507.925C229.103 503.571 213.264 501.433 197.323 501.719C189.2 501.865 181.208 502.62 173.731 504.137C153.117 508.313 134.086 516.255 116.639 527.945C99.1915 539.643 85.183 554.244 74.6409 571.767C64.0767 589.286 59.2414 608.852 60.1348 630.462C61.0172 652.075 69.7368 674.954 86.2963 699.1C91.2389 706.202 97.5147 713.21 105.129 720.111C109.046 723.664 113.142 727.007 117.392 730.147C120.254 732.263 123.184 734.282 126.18 736.208L106.256 775.653C98.672 770.95 91.3791 765.793 84.4408 760.183C81.2905 757.636 78.2145 754.999 75.2154 752.271C65.2945 743.241 56.9323 733.903 50.1287 724.263C35.6831 703.647 25.8694 682.564 20.6739 661.001C15.4895 639.449 14.6126 619.349 18.0707 600.709C21.5151 582.063 28.2747 564.267 38.366 547.305C48.4436 530.343 61.0886 515.612 76.2737 503.09C91.4505 490.579 108.686 480.389 127.965 472.516C147.237 464.65 167.164 459.733 187.762 457.779C205.6 456.087 224.034 457.15 243.073 460.977C246.017 461.565 248.975 462.224 251.947 462.95C252.04 462.969 252.122 462.994 252.216 463.013C253.343 463.29 255.017 463.812 256.895 464.439C260.872 465.766 264.803 467.227 268.682 468.815H268.671Z" fill="#E5213C"/>
<path d="M316.72 505.695C315.692 507.874 313.064 508.813 310.89 507.783C312.72 508.651 313.677 510.646 313.322 512.555C313.254 512.912 313.141 513.267 312.979 513.613C311.948 515.789 309.325 516.725 307.143 515.698C309.323 516.725 310.263 519.352 309.232 521.525C308.204 523.701 305.581 524.64 303.402 523.607L283.697 514.297L283.689 514.31C285.632 515.44 286.427 517.901 285.448 519.967C284.42 522.143 281.795 523.08 279.615 522.052L274.04 519.42V519.415L267.498 516.442C261.423 513.681 255.202 511.291 248.871 509.288L268.674 468.818C271.811 470.101 274.92 471.467 277.99 472.912L298.673 482.645L313.798 489.794C315.686 490.684 316.387 493.195 315.359 495.371C314.331 497.547 311.945 498.596 310.054 497.703L314.636 499.871C316.816 500.904 317.754 503.525 316.726 505.698H316.72V505.695Z" fill="#F8D1DD"/>
<path d="M283.498 513.989L267.145 506.261C266.999 506.192 266.831 506.244 266.768 506.379C266.705 506.513 266.771 506.675 266.917 506.744L283.27 514.472C283.416 514.541 283.583 514.489 283.647 514.354C283.71 514.219 283.644 514.057 283.498 513.989Z" fill="#1E0232"/>
<path d="M307.111 515.494L281.491 503.387C281.386 503.338 281.252 503.406 281.188 503.538C281.125 503.67 281.158 503.818 281.263 503.868L306.883 515.975C306.987 516.025 307.122 515.956 307.185 515.824C307.248 515.692 307.215 515.544 307.111 515.494Z" fill="#1E0232"/>
<path d="M310.861 507.484L287.267 496.333C287.168 496.286 287.034 496.355 286.973 496.49C286.913 496.624 286.94 496.77 287.039 496.816L310.633 507.968C310.732 508.014 310.867 507.946 310.927 507.811C310.988 507.676 310.96 507.531 310.861 507.484Z" fill="#1E0232"/>
<path d="M311.015 497.913L289.381 487.688C289.252 487.627 289.098 487.688 289.035 487.819C288.971 487.951 289.024 488.111 289.153 488.171L310.787 498.396C310.916 498.457 311.07 498.396 311.133 498.265C311.196 498.133 311.144 497.973 311.015 497.913Z" fill="#1E0232"/>
<path d="M172.571 776.96C171.433 779.081 168.761 779.88 166.639 778.738C168.759 779.88 169.561 782.548 168.418 784.672C168.239 785.004 168.019 785.306 167.772 785.573C166.45 786.99 164.272 787.405 162.488 786.446C164.608 787.584 165.41 790.257 164.267 792.375C163.123 794.493 160.454 795.295 158.332 794.153L153.868 791.749C155.709 792.738 156.276 795.284 155.135 797.4C153.991 799.518 151.553 800.444 149.717 799.449L134.991 791.521L118.877 782.924C114.586 780.636 110.374 778.21 106.248 775.652L126.172 736.207C129.196 738.155 132.278 740.004 135.417 741.756L149.997 749.894H150.003L155.432 752.817C157.551 753.96 158.354 756.627 157.21 758.748C156.127 760.759 153.67 761.581 151.614 760.688L151.605 760.704L170.793 771.037C172.915 772.18 173.715 774.847 172.571 776.966V776.96Z" fill="#F8D1DD"/>
<path d="M151.243 760.721L135.318 752.147C135.178 752.07 135.12 751.905 135.189 751.776C135.258 751.646 135.431 751.603 135.571 751.677L151.496 760.251C151.636 760.328 151.694 760.493 151.625 760.622C151.556 760.751 151.383 760.795 151.243 760.721Z" fill="#1E0232"/>
<path d="M166.462 778.829L141.513 765.395C141.411 765.34 141.386 765.191 141.455 765.062C141.524 764.933 141.664 764.873 141.765 764.925L166.715 778.359C166.816 778.414 166.841 778.562 166.772 778.692C166.704 778.821 166.563 778.881 166.462 778.829Z" fill="#1E0232"/>
<path d="M162.231 786.597L139.253 774.226C139.157 774.174 139.132 774.026 139.203 773.897C139.275 773.768 139.409 773.704 139.506 773.757L162.484 786.128C162.58 786.18 162.605 786.328 162.533 786.457C162.462 786.586 162.327 786.65 162.231 786.597Z" fill="#1E0232"/>
<path d="M154.611 792.396L133.543 781.053C133.419 780.987 133.372 780.825 133.444 780.696C133.515 780.567 133.672 780.514 133.796 780.583L154.863 791.927C154.987 791.993 155.034 792.155 154.962 792.284C154.891 792.413 154.734 792.465 154.611 792.396Z" fill="#1E0232"/>
<g clip-path="url(#clip0_29_1080)">
<path d="M1796.99 1119.46L1749.6 1117.22L1750.58 1097.63L1750.91 1090.97C1751.04 1088.37 1753.27 1086.35 1755.86 1086.48C1758.32 1086.6 1760.27 1088.61 1760.34 1091.05H1760.37L1761.54 1067.5C1761.67 1064.91 1763.9 1062.88 1766.49 1063.01C1769.09 1063.14 1771.11 1065.38 1770.97 1067.98C1771.11 1065.38 1773.34 1063.35 1775.93 1063.49C1776.33 1063.51 1776.73 1063.57 1777.1 1063.69C1779.1 1064.33 1780.51 1066.26 1780.41 1068.45C1780.54 1065.85 1782.77 1063.83 1785.36 1063.96C1787.95 1064.09 1789.97 1066.33 1789.84 1068.93L1789.57 1074.4C1789.68 1072.14 1791.89 1070.4 1794.49 1070.53C1797.08 1070.66 1799.11 1072.61 1799 1074.87L1798.1 1092.94L1796.99 1119.48V1119.46Z" fill="#F8D1DD"/>
<path d="M1760.55 1091.38L1759.58 1110.92C1759.58 1111.1 1759.43 1111.23 1759.27 1111.22C1759.1 1111.21 1758.98 1111.07 1758.99 1110.89L1759.97 1091.34C1759.97 1091.17 1760.11 1091.04 1760.28 1091.05C1760.44 1091.06 1760.57 1091.2 1760.55 1091.38Z" fill="#1E0232"/>
<path d="M1771.14 1068.09L1769.61 1098.7C1769.61 1098.82 1769.47 1098.92 1769.32 1098.91C1769.16 1098.9 1769.03 1098.8 1769.04 1098.67L1770.57 1068.06C1770.57 1067.93 1770.71 1067.84 1770.87 1067.85C1771.02 1067.86 1771.15 1067.96 1771.14 1068.09Z" fill="#1E0232"/>
<path d="M1780.67 1068.61L1779.27 1096.8C1779.27 1096.92 1779.13 1097.01 1778.97 1096.99C1778.82 1096.98 1778.69 1096.88 1778.7 1096.76L1780.1 1068.57C1780.1 1068.45 1780.25 1068.36 1780.4 1068.38C1780.55 1068.39 1780.69 1068.49 1780.67 1068.61Z" fill="#1E0232"/>
<path d="M1789.86 1073.35L1788.58 1099.21C1788.58 1099.36 1788.44 1099.48 1788.28 1099.47C1788.13 1099.46 1788 1099.33 1788.01 1099.17L1789.29 1073.32C1789.29 1073.17 1789.44 1073.04 1789.59 1073.06C1789.74 1073.07 1789.88 1073.2 1789.86 1073.35Z" fill="#1E0232"/>
<path d="M1549.28 1348.46L1548.61 1300.89L1529.05 1301.22L1522.4 1301.33C1519.81 1301.38 1517.71 1303.54 1517.75 1306.14C1517.8 1308.61 1519.74 1310.62 1522.16 1310.79V1310.81L1498.65 1311.21C1496.04 1311.25 1493.96 1313.42 1494 1316.02C1494.04 1318.62 1496.21 1320.72 1498.8 1320.68C1496.2 1320.72 1494.11 1322.89 1494.15 1325.49C1494.15 1325.9 1494.22 1326.29 1494.33 1326.68C1494.89 1328.71 1496.78 1330.18 1498.96 1330.15C1496.37 1330.19 1494.28 1332.36 1494.32 1334.96C1494.36 1337.56 1496.53 1339.66 1499.12 1339.62L1504.59 1339.53C1502.34 1339.56 1500.52 1341.73 1500.57 1344.33C1500.61 1346.94 1502.49 1349.03 1504.74 1349L1522.78 1348.69L1549.27 1348.45L1549.28 1348.46Z" fill="#F8D1DD"/>
<path d="M1522.5 1311.01L1542.01 1310.68C1542.19 1310.68 1542.32 1310.55 1542.32 1310.38C1542.32 1310.22 1542.18 1310.1 1542 1310.1L1522.49 1310.43C1522.31 1310.43 1522.18 1310.56 1522.18 1310.72C1522.18 1310.89 1522.32 1311.01 1522.5 1311.01Z" fill="#1E0232"/>
<path d="M1498.94 1320.86L1529.51 1320.34C1529.63 1320.34 1529.73 1320.21 1529.73 1320.04C1529.73 1319.88 1529.62 1319.75 1529.5 1319.75L1498.93 1320.27C1498.81 1320.27 1498.71 1320.4 1498.71 1320.57C1498.71 1320.73 1498.82 1320.86 1498.94 1320.86Z" fill="#1E0232"/>
<path d="M1499.14 1330.43L1527.29 1329.96C1527.41 1329.96 1527.5 1329.83 1527.5 1329.66C1527.5 1329.5 1527.4 1329.38 1527.28 1329.38L1499.13 1329.85C1499.01 1329.85 1498.92 1329.98 1498.92 1330.15C1498.92 1330.31 1499.02 1330.43 1499.14 1330.43Z" fill="#1E0232"/>
<path d="M1503.57 1339.79L1529.38 1339.35C1529.53 1339.35 1529.65 1339.22 1529.65 1339.06C1529.65 1338.89 1529.52 1338.77 1529.37 1338.77L1503.56 1339.21C1503.4 1339.21 1503.28 1339.34 1503.28 1339.51C1503.28 1339.67 1503.41 1339.79 1503.57 1339.79Z" fill="#1E0232"/>
<path d="M1549.28 1348.46L1548.61 1300.89L1715.64 1298.08C1729.98 1297.85 1741.73 1286.41 1742.39 1272.05L1749.59 1117.22L1796.98 1119.46L1789.87 1274.24C1788.06 1313.7 1755.8 1345.1 1716.41 1345.74L1549.27 1348.46H1549.28Z" fill="#E5213C"/>
<path d="M1707.56 1189.76C1703.94 1189.78 1700.37 1189.18 1697.01 1188.01C1693.65 1186.84 1690.48 1185.09 1687.66 1182.84C1685.16 1180.84 1682.47 1179.15 1679.62 1177.77C1676.76 1176.39 1673.76 1175.34 1670.66 1174.62C1666.63 1173.7 1662.54 1173.41 1658.53 1173.72H1658.52C1651.5 1174.27 1644.72 1176.66 1638.86 1180.69C1638.84 1180.7 1638.82 1180.72 1638.81 1180.73C1636.89 1182.05 1635.07 1183.56 1633.38 1185.24L1631.1 1187.49C1630.37 1188.21 1629.68 1188.96 1629.01 1189.72C1617.29 1203.22 1615.98 1223.09 1626.16 1238.1C1631.7 1246.27 1634.93 1255.81 1635.48 1265.68L1635.59 1267.61C1636.16 1277.83 1642.44 1286.84 1651.81 1290.89L1653.91 1291.79C1655.27 1292.38 1656.86 1292.06 1657.88 1290.98L1661.3 1287.4C1662.52 1286.12 1662.67 1284.15 1661.67 1282.7L1654 1271.51C1653.36 1270.59 1654.58 1269.51 1655.41 1270.27L1664.91 1278.88C1666.25 1280.1 1668.33 1280.02 1669.57 1278.71L1672.94 1275.18C1673.92 1274.15 1673.99 1272.57 1673.13 1271.46L1668.89 1265.99C1668.42 1265.38 1669.15 1264.56 1669.81 1264.98L1675.83 1268.79C1676.99 1269.53 1678.51 1269.32 1679.43 1268.31L1712.61 1231.97C1713.42 1231.08 1713.49 1229.73 1712.77 1228.78L1706.46 1220.26C1705.97 1219.34 1707.1 1218.41 1707.91 1219.09L1716.52 1226.28C1717.48 1227.08 1718.89 1226.99 1719.76 1226.09L1723.82 1221.83C1724.43 1221.18 1724.64 1220.24 1724.35 1219.39L1722.13 1213.04C1721.88 1212.32 1722.69 1211.71 1723.3 1212.13L1727.1 1214.7C1728.33 1215.54 1729.98 1215.36 1731 1214.28L1733 1212.18C1734.66 1210.44 1734.7 1207.71 1733.1 1205.92L1726.02 1197.98C1725.33 1197.21 1724.6 1196.49 1723.83 1195.82C1719.35 1191.91 1713.57 1189.73 1707.57 1189.76H1707.56ZM1695.88 1199.47C1702.94 1210.49 1703.48 1223.85 1690.9 1234.61C1690.9 1234.61 1677.16 1248.59 1655.44 1236.22C1653.93 1235.36 1652.51 1234.48 1651.19 1233.58C1654.15 1233.65 1656.2 1233.35 1656.2 1233.35C1656.2 1233.35 1663.37 1229.1 1652.9 1218.44C1645.12 1210.53 1642.43 1200.03 1643.78 1191.4C1644.26 1188.41 1645.2 1185.63 1646.59 1183.29C1650.14 1180.85 1654.31 1179.08 1658.92 1178.18C1661.96 1177.58 1665.09 1178.18 1667.82 1179.6C1668.37 1179.89 1668.95 1180.18 1669.56 1180.5C1677.86 1184.82 1690.83 1191.59 1695.89 1199.47H1695.88Z" fill="#1E0232"/>
<path d="M1682.05 1237.42C1694.59 1221.78 1692.69 1199.38 1677.81 1187.38C1662.93 1175.38 1640.7 1178.32 1628.16 1193.95C1615.62 1209.59 1617.52 1231.99 1632.4 1243.99C1647.28 1255.99 1669.51 1253.05 1682.05 1237.42Z" fill="#1E0232"/>
<path d="M1685.3 1205.12C1689.36 1206.76 1693.96 1204.79 1695.59 1200.73C1697.23 1196.67 1695.26 1192.05 1691.21 1190.41C1687.16 1188.77 1682.56 1190.74 1680.92 1194.81C1679.29 1198.87 1681.25 1203.48 1685.3 1205.12Z" fill="#F8D1DD"/>
<path d="M1700.32 1206.6C1701.74 1206.6 1702.9 1205.44 1702.9 1204.01C1702.9 1202.58 1701.74 1201.43 1700.32 1201.43C1698.89 1201.43 1697.74 1202.58 1697.74 1204.01C1697.74 1205.44 1698.89 1206.6 1700.32 1206.6Z" fill="#F8F2B1"/>
<path d="M1694.53 1197.47L1694.13 1197.86L1700.79 1204.73L1701.19 1204.34L1694.53 1197.47Z" fill="#F8F2B1"/>
<path d="M1694.54 1200.64C1696 1200.64 1697.19 1199.46 1697.19 1197.99C1697.19 1196.52 1696 1195.34 1694.54 1195.34C1693.08 1195.34 1691.89 1196.52 1691.89 1197.99C1691.89 1199.46 1693.08 1200.64 1694.54 1200.64Z" fill="white"/>
<path d="M1695.88 1199.48C1702.94 1210.49 1703.48 1223.86 1690.89 1234.61C1690.89 1234.61 1677.16 1248.59 1655.43 1236.22C1653.93 1235.36 1652.51 1234.48 1651.18 1233.58C1654.15 1233.66 1656.2 1233.35 1656.2 1233.35C1656.2 1233.35 1663.37 1229.1 1652.9 1218.44C1645.12 1210.53 1642.43 1200.03 1643.78 1191.4C1644.25 1188.41 1645.2 1185.63 1646.59 1183.29C1650.14 1180.86 1654.31 1179.08 1658.91 1178.18C1661.96 1177.59 1665.09 1178.18 1667.82 1179.6C1668.37 1179.89 1668.95 1180.18 1669.56 1180.5C1677.86 1184.82 1690.83 1191.59 1695.89 1199.48H1695.88Z" fill="#F8D1DD"/>
<path d="M1646.59 1183.28C1645.2 1185.64 1644.24 1188.4 1643.78 1191.39C1642.43 1200.02 1645.12 1210.52 1652.9 1218.43C1663.37 1229.08 1656.2 1233.34 1656.2 1233.34C1656.2 1233.34 1654.15 1233.66 1651.18 1233.57C1632.55 1220.9 1630.67 1203.9 1638.18 1191.96C1640.3 1188.59 1643.16 1185.62 1646.59 1183.27V1183.28Z" fill="#F8D1DD"/>
<path d="M1669.55 1180.5C1668.94 1180.18 1668.36 1179.89 1667.81 1179.6C1665.08 1178.17 1661.95 1177.58 1658.9 1178.18C1656.6 1178.63 1653.5 1179.91 1651 1181.07C1647.58 1182.67 1645.03 1185.73 1644.17 1189.41C1644.01 1190.06 1643.88 1190.73 1643.77 1191.4C1642.42 1200.03 1645.11 1210.53 1652.89 1218.44C1663.36 1229.08 1656.19 1233.35 1656.19 1233.35C1656.19 1233.35 1654.14 1233.67 1651.17 1233.58C1643.14 1233.36 1628.42 1230.26 1629.52 1210.24C1629.96 1202.07 1631.66 1196.37 1633.82 1192.41L1629 1192.89C1629 1192.89 1630.99 1186.4 1638.78 1180.72C1638.81 1180.71 1638.83 1180.69 1638.84 1180.68C1641.66 1178.63 1645.25 1176.68 1649.78 1175.18C1653.18 1174.06 1656.06 1173.63 1658.5 1173.71H1658.51C1664.45 1173.91 1667.72 1177.11 1669.52 1180.49H1669.55V1180.5Z" fill="#1E0232"/>
<path d="M1690.91 1203.86L1680.74 1216.83C1680.74 1216.83 1686.49 1221.04 1691.27 1215.08C1696.01 1209.17 1690.91 1203.86 1690.91 1203.86Z" fill="#1E0232"/>
<mask id="mask0_29_1080" style="mask-type:luminance" maskUnits="userSpaceOnUse" x="1680" y="1203" width="14" height="16">
<path d="M1690.91 1203.86L1680.74 1216.83C1680.74 1216.83 1686.49 1221.04 1691.27 1215.08C1696.01 1209.17 1690.91 1203.86 1690.91 1203.86Z" fill="white"/>
</mask>
<g mask="url(#mask0_29_1080)">
<path d="M1689.47 1224.64C1692.58 1225.42 1695.73 1223.54 1696.51 1220.42C1697.29 1217.3 1695.41 1214.14 1692.3 1213.36C1689.19 1212.58 1686.04 1214.46 1685.26 1217.58C1684.48 1220.7 1686.36 1223.86 1689.47 1224.64Z" fill="#E5213C"/>
<path d="M1693.33 1204.38L1681.6 1218.96L1679.14 1216.97L1690.31 1201.94L1693.33 1204.38Z" fill="#F5F4FA"/>
</g>
<path d="M1685.53 1205.99C1685.39 1206.03 1685.25 1206.02 1685.12 1205.95C1684.86 1205.81 1684.76 1205.48 1684.9 1205.21L1686.02 1203.13C1686.1 1202.95 1686.01 1202.71 1685.8 1202.6L1681.76 1201.24C1681.47 1201.14 1681.32 1200.83 1681.42 1200.54C1681.52 1200.26 1681.82 1200.1 1682.11 1200.2L1686.23 1201.6C1687.03 1202 1687.35 1202.87 1687.02 1203.62L1685.88 1205.73C1685.8 1205.86 1685.68 1205.96 1685.55 1205.99H1685.53Z" fill="#1E0232"/>
<path d="M1655.28 1200.2C1655.28 1200.2 1659.19 1193.06 1662.33 1195.04C1662.33 1195.04 1664.42 1196.43 1660.88 1202.58C1657.34 1208.74 1655.45 1210.81 1653.12 1210.04C1650.79 1209.27 1653.17 1203.37 1655.28 1200.2Z" fill="#1E0232"/>
<path d="M1670.39 1182.4C1670.39 1182.4 1665.78 1186.13 1667.53 1188.62C1667.53 1188.62 1668.76 1190.28 1672.71 1186.91C1675.58 1184.46 1675.95 1182.97 1675.13 1181.83C1674.18 1180.49 1671.98 1180.87 1670.38 1182.4H1670.39Z" fill="#1E0232"/>
<path d="M1668.61 1212.62C1668.53 1212.65 1668.45 1212.66 1668.36 1212.66C1667.8 1212.67 1667.34 1212.23 1667.33 1211.67C1667.21 1206.49 1671.28 1204.44 1673.44 1204.08C1673.99 1203.99 1674.51 1204.37 1674.61 1204.92C1674.71 1205.47 1674.32 1206 1673.78 1206.08C1673.58 1206.13 1669.25 1206.94 1669.36 1211.63C1669.36 1212.11 1669.05 1212.5 1668.62 1212.64H1668.61V1212.62Z" fill="#1E0232"/>
<path d="M1681.46 1196.61C1681.46 1196.61 1681.4 1196.63 1681.37 1196.64C1680.82 1196.74 1680.3 1196.37 1680.2 1195.82C1679.89 1194.11 1680.15 1192.67 1680.99 1191.54C1682.26 1189.81 1684.38 1189.53 1684.48 1189.52C1685.03 1189.46 1685.54 1189.85 1685.6 1190.4C1685.67 1190.95 1685.26 1191.45 1684.72 1191.53C1684.69 1191.53 1683.34 1191.73 1682.6 1192.75C1682.12 1193.41 1681.98 1194.32 1682.19 1195.46C1682.27 1195.98 1681.97 1196.47 1681.46 1196.61Z" fill="#1E0232"/>
<path d="M1664.15 1214.55C1663.93 1214.55 1663.71 1214.47 1663.54 1214.32C1663.15 1213.98 1663.11 1213.4 1663.45 1213L1669.59 1205.92C1669.93 1205.53 1670.51 1205.49 1670.91 1205.83C1671.29 1206.17 1671.34 1206.76 1671 1207.15L1664.86 1214.23C1664.67 1214.44 1664.42 1214.55 1664.15 1214.55Z" fill="#1E0232"/>
<path d="M1677.96 1197.35C1677.74 1197.35 1677.52 1197.27 1677.34 1197.12C1676.96 1196.78 1676.92 1196.18 1677.26 1195.8L1681.63 1190.79C1681.97 1190.4 1682.56 1190.36 1682.94 1190.7C1683.33 1191.04 1683.37 1191.64 1683.03 1192.02L1678.66 1197.03C1678.47 1197.24 1678.22 1197.35 1677.96 1197.35Z" fill="#1E0232"/>
<path d="M1650.63 1197.57C1650.36 1197.57 1650.08 1197.47 1649.87 1197.26L1649.58 1196.99C1647.23 1194.7 1644.14 1193.35 1640.87 1193.21C1640.27 1193.19 1639.79 1192.67 1639.83 1192.06C1639.85 1191.46 1640.4 1191 1640.97 1191.02C1644.78 1191.19 1648.38 1192.76 1651.11 1195.42L1651.39 1195.7C1651.83 1196.12 1651.84 1196.82 1651.41 1197.25C1651.19 1197.47 1650.91 1197.58 1650.62 1197.58H1650.63V1197.57Z" fill="#1E0232"/>
<path d="M1652.44 1190.5C1652.18 1190.5 1651.93 1190.41 1651.72 1190.23L1650.61 1189.25C1648.95 1187.77 1646.82 1186.87 1644.61 1186.7C1644.01 1186.66 1643.56 1186.13 1643.6 1185.53C1643.65 1184.92 1644.18 1184.46 1644.78 1184.51C1647.46 1184.71 1650.05 1185.81 1652.06 1187.6L1653.17 1188.58C1653.62 1188.98 1653.66 1189.68 1653.27 1190.13C1653.05 1190.37 1652.75 1190.5 1652.44 1190.5Z" fill="#1E0232"/>
<path d="M1656.81 1185.33C1656.54 1185.33 1656.29 1185.24 1656.08 1185.05L1654.97 1184.07C1653.31 1182.6 1651.18 1181.7 1648.98 1181.53C1648.37 1181.48 1647.92 1180.96 1647.97 1180.35C1648.01 1179.74 1648.53 1179.28 1649.14 1179.34C1651.82 1179.53 1654.41 1180.64 1656.42 1182.42L1657.53 1183.4C1657.98 1183.81 1658.03 1184.5 1657.63 1184.95C1657.41 1185.19 1657.11 1185.33 1656.81 1185.33Z" fill="#1E0232"/>
<path d="M1662.66 1182.97C1662.4 1182.97 1662.14 1182.88 1661.93 1182.69L1660.83 1181.71C1659.17 1180.24 1657.04 1179.35 1654.83 1179.17C1654.23 1179.13 1653.78 1178.6 1653.82 1177.99C1653.86 1177.39 1654.39 1176.94 1654.99 1176.98C1657.67 1177.18 1660.27 1178.28 1662.28 1180.06L1663.38 1181.04C1663.83 1181.45 1663.88 1182.14 1663.48 1182.6C1663.26 1182.84 1662.97 1182.97 1662.66 1182.97Z" fill="#1E0232"/>
<path d="M1654.36 1243.56C1658.65 1243.56 1662.12 1240.08 1662.12 1235.78C1662.12 1231.48 1658.65 1227.99 1654.36 1227.99C1650.07 1227.99 1646.59 1231.48 1646.59 1235.78C1646.59 1240.08 1650.07 1243.56 1654.36 1243.56Z" fill="#F8D1DD"/>
<path d="M1653.13 1235.39C1652.84 1235.39 1652.6 1235.17 1652.58 1234.89C1652.56 1234.58 1652.78 1234.31 1653.08 1234.29L1659.89 1233.72C1660.19 1233.69 1660.46 1233.92 1660.48 1234.23C1660.51 1234.53 1660.29 1234.8 1659.98 1234.82L1653.17 1235.39H1653.13Z" fill="#1D1330"/>
<path d="M1664.31 1250.49C1665.96 1250.49 1667.29 1249.15 1667.29 1247.5C1667.29 1245.84 1665.96 1244.5 1664.31 1244.5C1662.66 1244.5 1661.32 1245.84 1661.32 1247.5C1661.32 1249.15 1662.66 1250.49 1664.31 1250.49Z" fill="#F8F2B1"/>
<path d="M1657.61 1239.91L1657.14 1240.37L1664.84 1248.31L1665.31 1247.86L1657.61 1239.91Z" fill="#F8F2B1"/>
<path d="M1657.62 1243.59C1659.3 1243.59 1660.67 1242.22 1660.67 1240.53C1660.67 1238.84 1659.3 1237.46 1657.62 1237.46C1655.93 1237.46 1654.56 1238.84 1654.56 1240.53C1654.56 1242.22 1655.93 1243.59 1657.62 1243.59Z" fill="white"/>
</g>
<path d="M1485.34 27.7196L1495.5 36.3402C1497.07 37.6725 1495.82 40.2102 1493.81 39.782L1481.67 37.1941C1480.98 37.0443 1480.26 37.2805 1479.79 37.8049L1469.08 49.7085C1467.77 51.1657 1465.36 50.0357 1465.65 48.095L1467.88 32.9533C1467.98 32.2796 1467.73 31.5997 1467.2 31.1579L1457.5 22.8996C1455.93 21.5672 1457.19 19.0255 1459.2 19.4578L1471.7 22.1542C1472.41 22.3068 1473.14 22.0625 1473.61 21.5164L1483.67 9.96254C1484.98 8.4524 1487.45 9.62379 1487.11 11.594L1484.67 25.8739C1484.56 26.5623 1484.81 27.2626 1485.34 27.7168L1485.34 27.7196Z" fill="#82879B"/>
<path d="M1446.9 313.975C1445.41 315.088 1444.24 316.445 1443.37 318.047C1442.51 319.626 1442.06 321.276 1442.01 322.988C1441.94 324.945 1442.41 326.761 1443.43 328.436C1444.39 330.027 1445.71 331.28 1447.37 332.209C1449.26 333.263 1451.56 333.851 1454.27 333.973C1456.15 334.062 1458.32 333.932 1460.78 333.574C1462.5 333.333 1464.26 333 1466.06 332.568C1466.37 332.497 1466.67 332.42 1466.99 332.342L1467 332.379L1469.21 331.713L1470.32 329.986H1470.3C1470.51 329.631 1470.71 329.268 1470.93 328.895C1471.82 327.327 1472.62 325.77 1473.31 324.212C1474.33 321.927 1475.05 319.87 1475.49 318.036C1476.11 315.414 1476.17 313.054 1475.66 310.964C1475.22 309.122 1474.36 307.532 1473.08 306.193C1471.73 304.754 1470.09 303.796 1468.17 303.319C1466.51 302.905 1464.79 302.894 1463.02 303.286C1461.24 303.671 1459.61 304.421 1458.13 305.535C1456.07 307.077 1454.64 309.063 1453.83 311.489C1451.26 311.597 1448.95 312.421 1446.9 313.964V313.975Z" fill="#82879B"/>
<path d="M1713.67 852H1703.34C1702.87 852 1702.47 851.84 1702.14 851.515C1701.8 851.19 1701.64 850.807 1701.64 850.354V843.648H1694.7C1694.23 843.648 1693.84 843.488 1693.5 843.163C1693.17 842.838 1693 842.455 1693 842.002V832.004C1693 831.551 1693.17 831.167 1693.5 830.842C1693.84 830.517 1694.23 830.358 1694.7 830.358H1701.64V823.646C1701.64 823.193 1701.8 822.81 1702.14 822.485C1702.47 822.16 1702.87 822 1703.34 822H1713.67C1714.14 822 1714.53 822.16 1714.87 822.485C1715.2 822.81 1715.37 823.193 1715.37 823.646V830.358H1722.3C1722.77 830.358 1723.16 830.517 1723.5 830.842C1723.83 831.167 1724 831.551 1724 832.004V842.002C1724 842.455 1723.83 842.838 1723.5 843.163C1723.16 843.483 1722.77 843.648 1722.3 843.648H1715.37V850.354C1715.37 850.807 1715.2 851.19 1714.87 851.515C1714.53 851.84 1714.14 852 1713.67 852Z" fill="#82879B"/>
<path d="M1564.17 182.26C1558.5 178.89 1556.62 171.536 1559.99 165.858C1563.36 160.181 1570.71 158.307 1576.39 161.672C1582.07 165.041 1583.95 172.396 1580.58 178.073C1577.21 183.751 1569.85 185.624 1564.17 182.26ZM1573.15 167.139C1570.49 165.562 1567.04 166.441 1565.46 169.103C1563.88 171.765 1564.76 175.215 1567.43 176.792C1570.09 178.369 1573.54 177.49 1575.12 174.828C1576.7 172.166 1575.82 168.716 1573.15 167.139Z" fill="#1E0232"/>
<path d="M1612.33 253.132C1612.33 253.132 1616.5 261.103 1608.4 264.1C1600.73 266.938 1597.69 259.364 1598.24 258.451" fill="#1E0232"/>
<path d="M1570.37 173.782C1570.37 173.782 1600.33 155.483 1618.95 194.499L1625.03 210.895C1625.58 212.386 1626.91 213.423 1628.48 213.672C1631.35 214.126 1636.15 216.759 1639.03 228.506C1639.68 231.168 1638.94 233.978 1637.1 236.014C1629.5 244.415 1606.51 265.576 1569.46 263.153C1566.77 262.977 1564.35 261.495 1562.94 259.201C1560.11 254.585 1556.34 246.575 1560.45 241.581L1560.75 241.323C1562.19 240.1 1562.66 238.088 1561.93 236.353C1557.27 225.333 1542.89 185.83 1570.37 173.777H1570.37V173.782Z" fill="#E5213C"/>
<path d="M1582.01 172.606C1585.18 171.889 1588.49 172.448 1591.49 173.567C1594.45 174.666 1597.33 176.095 1599.99 177.763C1602.56 179.364 1604.98 181.223 1606.97 183.512C1608.83 185.657 1610.32 188.104 1611.61 190.637C1613.05 193.481 1614.25 196.444 1615.49 199.378C1615.65 199.751 1616.2 199.43 1616.04 199.058C1613.77 193.696 1611.62 188.147 1607.87 183.602C1603.89 178.761 1598.12 175.55 1592.38 173.232C1589.06 171.889 1585.38 171.196 1581.84 171.994C1581.45 172.085 1581.61 172.697 1582.01 172.606Z" fill="#E9EEF9"/>
<path d="M1617.01 200.563C1616.88 200.611 1616.75 200.659 1616.62 200.706C1616.58 200.716 1616.54 200.735 1616.51 200.764C1616.48 200.788 1616.45 200.816 1616.43 200.855C1616.4 200.893 1616.39 200.931 1616.39 200.974C1616.38 201.017 1616.38 201.06 1616.39 201.098C1616.42 201.175 1616.47 201.251 1616.54 201.289C1616.61 201.328 1616.7 201.352 1616.78 201.323C1616.91 201.275 1617.04 201.227 1617.17 201.18C1617.22 201.17 1617.25 201.151 1617.28 201.122C1617.32 201.098 1617.35 201.07 1617.36 201.031C1617.39 200.993 1617.4 200.955 1617.4 200.912C1617.41 200.869 1617.41 200.826 1617.4 200.788C1617.37 200.711 1617.33 200.635 1617.25 200.596C1617.18 200.558 1617.09 200.534 1617.01 200.563Z" fill="#E9EEF9"/>
<path d="M1617.67 202.814C1617.53 202.914 1617.38 203 1617.23 203.067C1617.19 203.086 1617.16 203.115 1617.14 203.148C1617.11 203.177 1617.09 203.215 1617.08 203.258C1617.06 203.301 1617.06 203.344 1617.07 203.383C1617.07 203.426 1617.09 203.464 1617.11 203.502C1617.15 203.569 1617.22 203.631 1617.3 203.646L1617.39 203.655C1617.45 203.655 1617.5 203.641 1617.55 203.612C1617.7 203.545 1617.85 203.459 1617.99 203.359C1618.02 203.34 1618.05 203.311 1618.08 203.278C1618.11 203.249 1618.12 203.211 1618.13 203.168C1618.15 203.125 1618.15 203.082 1618.14 203.043C1618.14 203 1618.12 202.962 1618.1 202.924C1618.06 202.857 1617.99 202.795 1617.91 202.781L1617.82 202.771C1617.77 202.771 1617.71 202.785 1617.67 202.814Z" fill="#E9EEF9"/>
<path d="M1618.67 204.577C1618.36 204.683 1618.05 204.826 1617.77 205.008C1617.7 205.051 1617.64 205.117 1617.62 205.199C1617.6 205.28 1617.61 205.376 1617.66 205.442C1617.75 205.581 1617.94 205.653 1618.09 205.557C1618.27 205.442 1618.46 205.347 1618.66 205.261L1618.58 205.294C1618.67 205.256 1618.76 205.223 1618.85 205.194C1618.92 205.165 1618.99 205.122 1619.04 205.051C1619.08 204.984 1619.1 204.883 1619.07 204.807C1619.02 204.649 1618.85 204.53 1618.68 204.587V204.577H1618.67Z" fill="#E9EEF9"/>
<path d="M1634.56 233.987C1631.61 237.376 1627.98 240.066 1624.26 242.542C1620.43 245.089 1616.43 247.368 1612.29 249.361C1603.79 253.457 1594.61 256.329 1585.34 258.088C1579.92 259.12 1574.36 259.813 1568.92 258.58C1568.52 258.489 1568.35 259.101 1568.75 259.192C1573.54 260.272 1578.41 259.913 1583.21 259.11C1588.05 258.303 1592.83 257.146 1597.52 255.717C1606.55 252.96 1615.18 249.127 1623.14 244.023C1627.42 241.285 1631.66 238.284 1635.01 234.432C1635.28 234.126 1634.83 233.677 1634.56 233.983H1634.56V233.987Z" fill="#E9EEF9"/>
<path d="M1570.2 176.558C1568.86 176.931 1567.79 177.853 1566.83 178.819C1565.77 179.899 1564.68 180.988 1563.67 182.121C1561.51 184.558 1559.68 187.407 1558.59 190.489C1557.97 192.224 1557.61 194.025 1557.44 195.856C1557.41 196.262 1558.04 196.262 1558.08 195.856C1558.44 191.779 1560.01 188.066 1562.38 184.754C1563.53 183.144 1564.91 181.791 1566.26 180.348C1567.43 179.096 1568.66 177.643 1570.37 177.165C1570.77 177.055 1570.6 176.444 1570.21 176.553L1570.2 176.558Z" fill="#E9EEF9"/>
<path d="M1556.94 199.325C1556.98 199.325 1557.01 199.335 1557.05 199.34L1556.96 199.33C1557.15 199.354 1557.34 199.392 1557.52 199.445C1557.6 199.464 1557.7 199.454 1557.77 199.411C1557.83 199.373 1557.9 199.297 1557.91 199.22C1557.93 199.139 1557.92 199.048 1557.88 198.976C1557.83 198.905 1557.77 198.852 1557.69 198.833C1557.44 198.766 1557.19 198.723 1556.94 198.694C1556.86 198.685 1556.76 198.738 1556.71 198.785C1556.65 198.843 1556.61 198.929 1556.62 199.01C1556.62 199.091 1556.65 199.177 1556.71 199.235L1556.77 199.282C1556.82 199.311 1556.87 199.325 1556.93 199.325H1556.94Z" fill="#E9EEF9"/>
<path d="M1556.87 201.653C1557.15 201.968 1557.54 202.178 1557.95 202.255C1558.04 202.269 1558.12 202.269 1558.19 202.221C1558.26 202.183 1558.32 202.107 1558.34 202.03C1558.37 201.872 1558.29 201.672 1558.12 201.638C1557.99 201.614 1557.87 201.581 1557.76 201.533L1557.83 201.567C1557.71 201.509 1557.58 201.438 1557.47 201.352L1557.53 201.399C1557.45 201.342 1557.39 201.275 1557.32 201.199C1557.27 201.141 1557.17 201.108 1557.09 201.108C1557.02 201.108 1556.92 201.141 1556.87 201.199C1556.74 201.332 1556.75 201.514 1556.87 201.648L1556.87 201.653Z" fill="#E9EEF9"/>
<path d="M1556.92 204.673C1557.35 204.888 1557.79 205.036 1558.26 205.103C1558.35 205.117 1558.43 205.117 1558.51 205.07C1558.57 205.031 1558.64 204.955 1558.65 204.879C1558.68 204.73 1558.6 204.515 1558.43 204.487C1558.22 204.458 1558 204.41 1557.79 204.343C1557.69 204.31 1557.59 204.276 1557.49 204.233C1557.42 204.2 1557.53 204.252 1557.47 204.224C1557.45 204.214 1557.43 204.2 1557.4 204.19C1557.35 204.166 1557.3 204.143 1557.25 204.114C1557.1 204.037 1556.9 204.071 1556.81 204.229C1556.74 204.372 1556.77 204.582 1556.93 204.663V204.673H1556.92Z" fill="#E9EEF9"/>
<path d="M104.036 37.2624L70.9138 28.4556C66.5753 27.3021 62.119 29.8853 60.9659 34.2221L58.2054 44.6046L66.0644 46.6941L67.9298 39.6786C68.4246 37.8173 70.3312 36.7122 72.1931 37.2073L98.5795 44.223C100.441 44.718 101.547 46.6241 101.052 48.4854L99.1871 55.5009L107.046 57.5905L109.807 47.2081C110.96 42.8713 108.375 38.4159 104.036 37.2624Z" fill="#1E0232"/>
<path d="M59.4745 44.9366L105.506 57.1757C125.646 62.5305 137.651 83.2229 132.298 103.355L120.919 146.155C120.418 148.039 118.482 149.161 116.597 148.66L4.41679 118.833C2.53172 118.332 1.40887 116.397 1.90989 114.512L13.2896 71.7126C18.6424 51.5805 39.3394 39.583 59.4791 44.9378L59.4745 44.9366Z" fill="#E9EEF9"/>
<path d="M6.50072 97.2437L125.509 128.886L120.919 146.15C120.418 148.035 118.482 149.157 116.597 148.655L4.41278 118.827C2.52771 118.326 1.40486 116.391 1.90588 114.507L6.49609 97.2425L6.50072 97.2437Z" fill="#E5213C"/>
<path d="M81.9423 70.0877L73.5195 67.8482L65.9846 96.1874L74.4073 98.4269L81.9423 70.0877Z" fill="#E5213C"/>
<path d="M89.2562 82.6891L60.9062 75.1513L58.6676 83.5709L87.0176 91.1086L89.2562 82.6891Z" fill="#E5213C"/>
<defs>
<clipPath id="clip0_29_1080">
<rect width="305" height="286" fill="white" transform="translate(1494 1063)"/>
</clipPath>
</defs>
</svg>
